G04 #@! TF.FileFunction,Paste,Top*
%FSLAX46Y46*%
G04 Gerber Fmt 4.6, Leading zero omitted, Abs format (unit mm)*
G04 Created by KiCad (PCBNEW (2015-06-12 BZR 5734)-product) date Wednesday, July 15, 2015 'PMt' 05:18:17 PM*
%MOMM*%
G01*
G04 APERTURE LIST*
%ADD10C,0.100000*%
%ADD11R,0.300000X1.600000*%
%ADD12R,6.500000X3.400000*%
%ADD13R,1.250000X1.500000*%
%ADD14R,1.000000X2.200000*%
%ADD15R,6.200000X3.000000*%
%ADD16R,4.000000X10.000000*%
%ADD17R,3.000000X10.000000*%
G04 APERTURE END LIST*
D10*
D11*
X129925000Y-89910000D03*
D12*
X127000000Y-92710000D03*
D11*
X129925000Y-95510000D03*
X129275000Y-89910000D03*
X129275000Y-95510000D03*
X128625000Y-89910000D03*
X128625000Y-95510000D03*
X127975000Y-89910000D03*
X127975000Y-95510000D03*
X127325000Y-89910000D03*
X127325000Y-95510000D03*
X126675000Y-89910000D03*
X126675000Y-95510000D03*
X126025000Y-89910000D03*
X126025000Y-95510000D03*
X125375000Y-89910000D03*
X125375000Y-95510000D03*
X124725000Y-89910000D03*
X124725000Y-95510000D03*
X124075000Y-89910000D03*
X124075000Y-95510000D03*
D13*
X122199400Y-91460000D03*
X122199400Y-93960000D03*
X101600000Y-93960000D03*
X101600000Y-91460000D03*
D14*
X138099800Y-95808800D03*
X138099800Y-89608800D03*
X139699800Y-95808800D03*
X139699800Y-89608800D03*
X141299800Y-95808800D03*
X141299800Y-89608800D03*
D15*
X139700000Y-92710000D03*
D16*
X134620000Y-92710000D03*
X144780000Y-92710000D03*
D14*
X163499800Y-95808800D03*
X163499800Y-89608800D03*
X165099800Y-95808800D03*
X165099800Y-89608800D03*
X166699800Y-95808800D03*
X166699800Y-89608800D03*
D15*
X165100000Y-92710000D03*
D16*
X160020000Y-92710000D03*
X170180000Y-92710000D03*
D14*
X87299800Y-95808800D03*
X87299800Y-89608800D03*
X88899800Y-95808800D03*
X88899800Y-89608800D03*
X90499800Y-95808800D03*
X90499800Y-89608800D03*
D15*
X88900000Y-92710000D03*
D16*
X83820000Y-92710000D03*
X93980000Y-92710000D03*
D14*
X112699800Y-95808800D03*
X112699800Y-89608800D03*
X114299800Y-95808800D03*
X114299800Y-89608800D03*
X115899800Y-95808800D03*
X115899800Y-89608800D03*
D15*
X114300000Y-92710000D03*
D16*
X109220000Y-92710000D03*
D17*
X118880000Y-92710000D03*
M02*
