M48
;DRILL file {KiCad (2015-06-12 BZR 5734)-product} date Wednesday, July 15, 2015 'PMt' 05:18:24 PM
;FORMAT={3:3/ absolute / metric / suppress leading zeros}
FMAT,2
METRIC,TZ
T1C0.350
T2C0.500
T3C1.762
%
G90
G05
M71
T1
X82804Y-93726
X82804Y-95250
X82804Y-96774
X84836Y-93726
X84836Y-95250
X84836Y-96774
X92964Y-93726
X92964Y-95250
X92964Y-96774
X94996Y-93726
X94996Y-95250
X94996Y-96774
X108204Y-93726
X108204Y-95250
X108204Y-96774
X110236Y-93726
X110236Y-95250
X110236Y-96774
X118364Y-93726
X118364Y-95250
X118364Y-96774
X122174Y-95402
X122199Y-90068
X129261Y-88062
X129540Y-96692
X133604Y-93726
X133604Y-95250
X133604Y-96774
X135636Y-93726
X135636Y-95250
X135636Y-96774
X143764Y-93726
X143764Y-95250
X143764Y-96774
X145796Y-93726
X145796Y-95250
X145796Y-96774
X152451Y-89459
X159004Y-93726
X159004Y-95250
X159004Y-96774
X161036Y-93726
X161036Y-95250
X161036Y-96774
X169164Y-93726
X169164Y-95250
X169164Y-96774
X171196Y-93726
X171196Y-95250
X171196Y-96774
T2
X124403Y-91402
X124403Y-92702
X124403Y-94002
X125703Y-91402
X125703Y-92702
X125703Y-94002
X127003Y-91402
X127003Y-92702
X127003Y-94002
X128303Y-91402
X128303Y-92702
X128303Y-94002
X129603Y-91402
X129603Y-92702
X129603Y-94002
T3
X78740Y-86766
X78740Y-90726
X78740Y-94686
X78740Y-98646
X175260Y-86766
X175260Y-90726
X175260Y-94686
X175260Y-98646
T0
M30
