G04 #@! TF.FileFunction,Copper,L1,Top,Signal*
%FSLAX46Y46*%
G04 Gerber Fmt 4.6, Leading zero omitted, Abs format (unit mm)*
G04 Created by KiCad (PCBNEW (2015-06-12 BZR 5734)-product) date Wednesday, July 15, 2015 'PMt' 05:18:17 PM*
%MOMM*%
G01*
G04 APERTURE LIST*
%ADD10C,0.100000*%
%ADD11R,0.300000X1.600000*%
%ADD12R,6.500000X3.400000*%
%ADD13C,0.600000*%
%ADD14C,0.750000*%
%ADD15R,1.250000X1.500000*%
%ADD16C,3.000000*%
%ADD17R,3.000000X3.000000*%
%ADD18R,1.000000X2.200000*%
%ADD19R,6.200000X3.000000*%
%ADD20R,4.000000X10.000000*%
%ADD21R,3.000000X10.000000*%
%ADD22C,0.500000*%
%ADD23C,0.153000*%
G04 APERTURE END LIST*
D10*
D11*
X129925000Y-89910000D03*
D12*
X127000000Y-92710000D03*
D11*
X129925000Y-95510000D03*
X129275000Y-89910000D03*
X129275000Y-95510000D03*
X128625000Y-89910000D03*
X128625000Y-95510000D03*
X127975000Y-89910000D03*
X127975000Y-95510000D03*
X127325000Y-89910000D03*
X127325000Y-95510000D03*
X126675000Y-89910000D03*
X126675000Y-95510000D03*
X126025000Y-89910000D03*
X126025000Y-95510000D03*
X125375000Y-89910000D03*
X125375000Y-95510000D03*
X124725000Y-89910000D03*
X124725000Y-95510000D03*
X124075000Y-89910000D03*
X124075000Y-95510000D03*
D13*
X129603500Y-91401900D03*
X129603500Y-92701900D03*
X129603500Y-94001900D03*
X128303500Y-91401900D03*
X128303500Y-92701900D03*
X128303500Y-94001900D03*
X127003500Y-91401900D03*
X127003500Y-92701900D03*
X127003500Y-94001900D03*
X125703500Y-91401900D03*
X125703500Y-92701900D03*
X125703500Y-94001900D03*
X124403500Y-91401900D03*
X124403500Y-92701900D03*
X124403500Y-94001900D03*
D14*
X171196000Y-96774000D03*
X169164000Y-96774000D03*
X169164000Y-93726000D03*
X169164000Y-95250000D03*
X171196000Y-95250000D03*
X171196000Y-93726000D03*
X161036000Y-96774000D03*
X159004000Y-96774000D03*
X159004000Y-93726000D03*
X159004000Y-95250000D03*
X161036000Y-95250000D03*
X161036000Y-93726000D03*
X145796000Y-96774000D03*
X143764000Y-96774000D03*
X143764000Y-93726000D03*
X143764000Y-95250000D03*
X145796000Y-95250000D03*
X145796000Y-93726000D03*
X135636000Y-96774000D03*
X133604000Y-96774000D03*
X133604000Y-93726000D03*
X133604000Y-95250000D03*
X135636000Y-95250000D03*
X135636000Y-93726000D03*
X118364000Y-96774000D03*
X118364000Y-93726000D03*
X118364000Y-95250000D03*
X110236000Y-96774000D03*
X108204000Y-96774000D03*
X108204000Y-93726000D03*
X108204000Y-95250000D03*
X110236000Y-95250000D03*
X110236000Y-93726000D03*
X94996000Y-96774000D03*
X92964000Y-95250000D03*
X94996000Y-95250000D03*
X94996000Y-93726000D03*
X92964000Y-93726000D03*
X92964000Y-96774000D03*
X84836000Y-96774000D03*
X82804000Y-96774000D03*
X82804000Y-95250000D03*
X84836000Y-95250000D03*
X84836000Y-93726000D03*
D15*
X122199400Y-91460000D03*
X122199400Y-93960000D03*
X101600000Y-93960000D03*
X101600000Y-91460000D03*
D16*
X78740000Y-86766400D03*
X78740000Y-90726400D03*
X78740000Y-94686400D03*
D17*
X78740000Y-98646400D03*
D16*
X175260000Y-86766400D03*
X175260000Y-90726400D03*
X175260000Y-94686400D03*
D17*
X175260000Y-98646400D03*
D14*
X82804000Y-93726000D03*
D18*
X138099800Y-95808800D03*
X138099800Y-89608800D03*
X139699800Y-95808800D03*
X139699800Y-89608800D03*
X141299800Y-95808800D03*
X141299800Y-89608800D03*
D19*
X139700000Y-92710000D03*
D20*
X134620000Y-92710000D03*
X144780000Y-92710000D03*
D18*
X163499800Y-95808800D03*
X163499800Y-89608800D03*
X165099800Y-95808800D03*
X165099800Y-89608800D03*
X166699800Y-95808800D03*
X166699800Y-89608800D03*
D19*
X165100000Y-92710000D03*
D20*
X160020000Y-92710000D03*
X170180000Y-92710000D03*
D18*
X87299800Y-95808800D03*
X87299800Y-89608800D03*
X88899800Y-95808800D03*
X88899800Y-89608800D03*
X90499800Y-95808800D03*
X90499800Y-89608800D03*
D19*
X88900000Y-92710000D03*
D20*
X83820000Y-92710000D03*
X93980000Y-92710000D03*
D18*
X112699800Y-95808800D03*
X112699800Y-89608800D03*
X114299800Y-95808800D03*
X114299800Y-89608800D03*
X115899800Y-95808800D03*
X115899800Y-89608800D03*
D19*
X114300000Y-92710000D03*
D20*
X109220000Y-92710000D03*
D21*
X118880000Y-92710000D03*
D22*
X122199400Y-90068400D03*
X152450800Y-89458800D03*
X129260600Y-88061800D03*
X122174000Y-95402400D03*
X129540000Y-96692410D03*
D23*
X122199400Y-91460000D02*
X122199400Y-90068400D01*
X104724200Y-84734400D02*
X173228000Y-84734400D01*
X173228000Y-84734400D02*
X175260000Y-86766400D01*
X103174800Y-86283800D02*
X104724200Y-84734400D01*
X103174800Y-88982200D02*
X103174800Y-86283800D01*
X101600000Y-91460000D02*
X101600000Y-90557000D01*
X101600000Y-90557000D02*
X103174800Y-88982200D01*
X78740000Y-86766400D02*
X80239999Y-85266401D01*
X80239999Y-85266401D02*
X95531401Y-85266401D01*
X95531401Y-85266401D02*
X101600000Y-91335000D01*
X101600000Y-91335000D02*
X101600000Y-91460000D01*
X129275000Y-89910000D02*
X129275000Y-88076200D01*
X129275000Y-88076200D02*
X129260600Y-88061800D01*
X122199400Y-93960000D02*
X122199400Y-95377000D01*
X122199400Y-95377000D02*
X122174000Y-95402400D01*
X129925000Y-95510000D02*
X129925000Y-96389000D01*
X129925000Y-96389000D02*
X129621590Y-96692410D01*
X129621590Y-96692410D02*
X129540000Y-96692410D01*
X129275000Y-96463000D02*
X129504410Y-96692410D01*
X129275000Y-95510000D02*
X129275000Y-96463000D01*
X129504410Y-96692410D02*
X129540000Y-96692410D01*
X97080010Y-92583248D02*
X97080010Y-87941632D01*
X100052772Y-95556010D02*
X97080010Y-92583248D01*
X102234753Y-95556010D02*
X100052772Y-95556010D01*
X106276020Y-87093217D02*
X106276020Y-91514743D01*
X127975000Y-89910000D02*
X127975000Y-87335000D01*
X106276020Y-91514743D02*
X102234753Y-95556010D01*
X127975000Y-87335000D02*
X126850020Y-86210020D01*
X97080010Y-87941632D02*
X96312388Y-87174010D01*
X96312388Y-87174010D02*
X89134590Y-87174010D01*
X89134590Y-87174010D02*
X87299800Y-89008800D01*
X126850020Y-86210020D02*
X107159217Y-86210020D01*
X87299800Y-89008800D02*
X87299800Y-89608800D01*
X107159217Y-86210020D02*
X106276020Y-87093217D01*
X105970010Y-91387990D02*
X102108000Y-95250000D01*
X86404501Y-90722501D02*
X86620301Y-90938301D01*
X102108000Y-95250000D02*
X100330000Y-95250000D01*
X100330000Y-95250000D02*
X97386020Y-92306020D01*
X88899800Y-90208800D02*
X88899800Y-89608800D01*
X88170299Y-90938301D02*
X88899800Y-90208800D01*
X86620301Y-90938301D02*
X88170299Y-90938301D01*
X86404501Y-88347499D02*
X86404501Y-90722501D01*
X87884000Y-86868000D02*
X86404501Y-88347499D01*
X96439141Y-86868000D02*
X87884000Y-86868000D01*
X107032464Y-85904010D02*
X105970010Y-86966464D01*
X105970010Y-86966464D02*
X105970010Y-91387990D01*
X128625000Y-89910000D02*
X128625000Y-87223000D01*
X127306010Y-85904010D02*
X107032464Y-85904010D01*
X97386020Y-92306020D02*
X97386020Y-87814879D01*
X128625000Y-87223000D02*
X127306010Y-85904010D01*
X97386020Y-87814879D02*
X96439141Y-86868000D01*
X96774000Y-88068385D02*
X96185635Y-87480020D01*
X99926019Y-95862020D02*
X96774000Y-92710001D01*
X102361506Y-95862020D02*
X99926019Y-95862020D01*
X106582029Y-91641497D02*
X102361506Y-95862020D01*
X126394030Y-86516030D02*
X107285970Y-86516030D01*
X127325000Y-87447000D02*
X126394030Y-86516030D01*
X96774000Y-92710001D02*
X96774000Y-88068385D01*
X106582029Y-87219971D02*
X106582029Y-91641497D01*
X90499800Y-88355800D02*
X90499800Y-89608800D01*
X107285970Y-86516030D02*
X106582029Y-87219971D01*
X91375580Y-87480020D02*
X90499800Y-88355800D01*
X96185635Y-87480020D02*
X91375580Y-87480020D01*
X127325000Y-89910000D02*
X127325000Y-87447000D01*
X126025000Y-89910000D02*
X126025000Y-87671000D01*
X126025000Y-87671000D02*
X125482050Y-87128050D01*
X116367448Y-87128050D02*
X115170299Y-88325199D01*
X125482050Y-87128050D02*
X116367448Y-87128050D01*
X115170299Y-88325199D02*
X115170299Y-90751403D01*
X115170299Y-90751403D02*
X114983401Y-90938301D01*
X114983401Y-90938301D02*
X113429301Y-90938301D01*
X113429301Y-90938301D02*
X112699800Y-90208800D01*
X112699800Y-90208800D02*
X112699800Y-89608800D01*
X114299800Y-89608800D02*
X114299800Y-88355800D01*
X114299800Y-88355800D02*
X115833560Y-86822040D01*
X115833560Y-86822040D02*
X125938040Y-86822040D01*
X125938040Y-86822040D02*
X126675000Y-87559000D01*
X126675000Y-87559000D02*
X126675000Y-89910000D01*
X115899800Y-89608800D02*
X115899800Y-88355800D01*
X115899800Y-88355800D02*
X116821540Y-87434060D01*
X116821540Y-87434060D02*
X125026060Y-87434060D01*
X125026060Y-87434060D02*
X125375000Y-87783000D01*
X125375000Y-87783000D02*
X125375000Y-89910000D01*
X131932440Y-87273407D02*
X131932440Y-97128612D01*
X126025000Y-96583513D02*
X126025000Y-95510000D01*
X127819067Y-98377582D02*
X126025000Y-96583513D01*
X127998324Y-98556840D02*
X127819067Y-98377582D01*
X130504212Y-98556840D02*
X127998324Y-98556840D01*
X131932440Y-97128612D02*
X130504212Y-98556840D01*
X137210857Y-86815992D02*
X132389855Y-86815992D01*
X138099800Y-87704935D02*
X137210857Y-86815992D01*
X138099800Y-89608800D02*
X138099800Y-87704935D01*
X132389855Y-86815992D02*
X131932440Y-87273407D01*
X125375000Y-95510000D02*
X125375000Y-96366276D01*
X132238450Y-97255365D02*
X132238450Y-87400160D01*
X125375000Y-96366276D02*
X127871574Y-98862850D01*
X127871574Y-98862850D02*
X130630965Y-98862850D01*
X130630965Y-98862850D02*
X132238450Y-97255365D01*
X132238450Y-87400160D02*
X132513111Y-87125499D01*
X132513111Y-87125499D02*
X137087601Y-87125499D01*
X139699800Y-89608800D02*
X139699800Y-90861800D01*
X139699800Y-90861800D02*
X139629600Y-90932000D01*
X139629600Y-90932000D02*
X138789702Y-90932000D01*
X138789702Y-90932000D02*
X138783401Y-90938301D01*
X138783401Y-90938301D02*
X137420301Y-90938301D01*
X137204501Y-87242399D02*
X137087601Y-87125499D01*
X137420301Y-90938301D02*
X137204501Y-90722501D01*
X137204501Y-90722501D02*
X137204501Y-87242399D01*
X139699800Y-89608800D02*
X139699800Y-90423800D01*
X126675000Y-96800751D02*
X126675000Y-95510000D01*
X137337610Y-86509982D02*
X132263102Y-86509982D01*
X131626430Y-97001859D02*
X130377459Y-98250830D01*
X141299800Y-89608800D02*
X141299800Y-89008800D01*
X130377459Y-98250830D02*
X128125077Y-98250830D01*
X128125077Y-98250830D02*
X126675000Y-96800751D01*
X131626430Y-87146654D02*
X131626430Y-97001859D01*
X132263102Y-86509982D02*
X131626430Y-87146654D01*
X137597658Y-86770030D02*
X137337610Y-86509982D01*
X141299800Y-89008800D02*
X139061030Y-86770030D01*
X139061030Y-86770030D02*
X137597658Y-86770030D01*
X137851164Y-86158010D02*
X137591116Y-85897962D01*
X162612010Y-86158010D02*
X137851164Y-86158010D01*
X128829047Y-97638810D02*
X127975000Y-96784763D01*
X130123953Y-97638810D02*
X128829047Y-97638810D01*
X131014410Y-96748353D02*
X130123953Y-97638810D01*
X131014410Y-86893148D02*
X131014410Y-96748353D01*
X132009596Y-85897962D02*
X131014410Y-86893148D01*
X137591116Y-85897962D02*
X132009596Y-85897962D01*
X163499800Y-87045800D02*
X162612010Y-86158010D01*
X163499800Y-89608800D02*
X163499800Y-87045800D01*
X127975000Y-96784763D02*
X127975000Y-95510000D01*
X130250706Y-97944820D02*
X128251830Y-97944820D01*
X165099800Y-90208800D02*
X164370299Y-90938301D01*
X164370299Y-90938301D02*
X162820301Y-90938301D01*
X137724411Y-86464020D02*
X137464363Y-86203972D01*
X137464363Y-86203972D02*
X132136349Y-86203972D01*
X132136349Y-86203972D02*
X131320420Y-87019901D01*
X162604501Y-87166501D02*
X161902020Y-86464020D01*
X131320420Y-87019901D02*
X131320420Y-96875106D01*
X131320420Y-96875106D02*
X130250706Y-97944820D01*
X161902020Y-86464020D02*
X137724411Y-86464020D01*
X162604501Y-90722501D02*
X162604501Y-87166501D01*
X162820301Y-90938301D02*
X162604501Y-90722501D01*
X128251830Y-97944820D02*
X127325000Y-97017989D01*
X127325000Y-97017989D02*
X127325000Y-95510000D01*
X165099800Y-89608800D02*
X165099800Y-90208800D01*
X131882893Y-85591902D02*
X130708400Y-86766395D01*
X128625000Y-97002000D02*
X128625000Y-95510000D01*
X163543000Y-85852000D02*
X137977917Y-85852000D01*
X130708400Y-96621600D02*
X129997200Y-97332800D01*
X137717869Y-85591952D02*
X132360677Y-85591952D01*
X166699800Y-89608800D02*
X166699800Y-89008800D01*
X137977917Y-85852000D02*
X137717869Y-85591952D01*
X132011176Y-85591902D02*
X131882893Y-85591902D01*
X166699800Y-89008800D02*
X163543000Y-85852000D01*
X128955800Y-97332800D02*
X128625000Y-97002000D01*
X132360677Y-85591952D02*
X132011176Y-85591902D01*
X130708400Y-86766395D02*
X130708400Y-96621600D01*
X129997200Y-97332800D02*
X128955800Y-97332800D01*
X129925000Y-87761000D02*
X127762000Y-85598000D01*
X106905711Y-85598000D02*
X105664000Y-86839711D01*
X127762000Y-85598000D02*
X106905711Y-85598000D01*
X129925000Y-89910000D02*
X129925000Y-87761000D01*
X105664000Y-86839711D02*
X105664000Y-91186000D01*
X105664000Y-91186000D02*
X102890000Y-93960000D01*
X102890000Y-93960000D02*
X101600000Y-93960000D01*
X121963938Y-88880499D02*
X124345499Y-88880499D01*
X120623390Y-90221047D02*
X121963938Y-88880499D01*
X124345499Y-88880499D02*
X124725000Y-89260000D01*
X119912438Y-98552000D02*
X120623390Y-97841048D01*
X81788000Y-98552000D02*
X119912438Y-98552000D01*
X77010499Y-92956899D02*
X77010499Y-89896239D01*
X77010499Y-89896239D02*
X77909839Y-88996899D01*
X81235499Y-90662237D02*
X81235499Y-97999499D01*
X79570161Y-88996899D02*
X81235499Y-90662237D01*
X77909839Y-88996899D02*
X79570161Y-88996899D01*
X81235499Y-97999499D02*
X81788000Y-98552000D01*
X124725000Y-89260000D02*
X124725000Y-89910000D01*
X78740000Y-94686400D02*
X77010499Y-92956899D01*
X120623390Y-97841048D02*
X120623390Y-90221047D01*
X175260000Y-90726400D02*
X176989501Y-92455901D01*
X127567270Y-99474870D02*
X124993400Y-96901000D01*
X176989501Y-92455901D02*
X176989501Y-95516561D01*
X176989501Y-95516561D02*
X175986062Y-96520000D01*
X171397990Y-99366010D02*
X130993331Y-99366010D01*
X175986062Y-96520000D02*
X173736000Y-96520000D01*
X173736000Y-96520000D02*
X172720000Y-97536000D01*
X124993400Y-96901000D02*
X124816000Y-96901000D01*
X172720000Y-97536000D02*
X172720000Y-98044000D01*
X172720000Y-98044000D02*
X171397990Y-99366010D01*
X130993331Y-99366010D02*
X130884471Y-99474870D01*
X130884471Y-99474870D02*
X127567270Y-99474870D01*
X124816000Y-96901000D02*
X124075000Y-96160000D01*
X124075000Y-96160000D02*
X124075000Y-95510000D01*
X124725000Y-95510000D02*
X124725000Y-96149038D01*
X173138680Y-94686400D02*
X175260000Y-94686400D01*
X172413990Y-95411090D02*
X173138680Y-94686400D01*
X172413990Y-97889112D02*
X172413990Y-95411090D01*
X130866578Y-99060000D02*
X171243102Y-99060000D01*
X171243102Y-99060000D02*
X172413990Y-97889112D01*
X130757718Y-99168860D02*
X130866578Y-99060000D01*
X124725000Y-96149038D02*
X127744822Y-99168860D01*
X127744822Y-99168860D02*
X130757718Y-99168860D01*
X80239999Y-92226399D02*
X78740000Y-90726400D01*
X123450899Y-89588899D02*
X121688301Y-89588899D01*
X80929489Y-92915889D02*
X80239999Y-92226399D01*
X120929400Y-97967800D02*
X120039190Y-98858010D01*
X120929400Y-90347800D02*
X120929400Y-97967800D01*
X80929489Y-98201489D02*
X80929489Y-92915889D01*
X81586010Y-98858010D02*
X80929489Y-98201489D01*
X120039190Y-98858010D02*
X81586010Y-98858010D01*
X121688301Y-89588899D02*
X120929400Y-90347800D01*
X123772000Y-89910000D02*
X123450899Y-89588899D01*
X124075000Y-89910000D02*
X123772000Y-89910000D01*
G36*
X120317390Y-97714298D02*
X119785688Y-98246000D01*
X81914749Y-98246000D01*
X81541499Y-97872749D01*
X81541499Y-92786500D01*
X96483216Y-92786500D01*
X96491293Y-92827102D01*
X96557625Y-92926376D01*
X99709644Y-96078395D01*
X99808918Y-96144727D01*
X99926019Y-96168020D01*
X102361506Y-96168020D01*
X102478607Y-96144727D01*
X102577881Y-96078395D01*
X105869776Y-92786500D01*
X120317390Y-92786500D01*
X120317390Y-97714298D01*
X120317390Y-97714298D01*
G37*
X120317390Y-97714298D02*
X119785688Y-98246000D01*
X81914749Y-98246000D01*
X81541499Y-97872749D01*
X81541499Y-92786500D01*
X96483216Y-92786500D01*
X96491293Y-92827102D01*
X96557625Y-92926376D01*
X99709644Y-96078395D01*
X99808918Y-96144727D01*
X99926019Y-96168020D01*
X102361506Y-96168020D01*
X102478607Y-96144727D01*
X102577881Y-96078395D01*
X105869776Y-92786500D01*
X120317390Y-92786500D01*
X120317390Y-97714298D01*
G36*
X130402400Y-96494850D02*
X129870450Y-97026800D01*
X129082550Y-97026800D01*
X128931000Y-96875250D01*
X128931000Y-96482025D01*
X128939419Y-96476495D01*
X128990902Y-96400224D01*
X129008996Y-96310000D01*
X129008996Y-94710000D01*
X128996190Y-94643996D01*
X130250000Y-94643996D01*
X130337508Y-94627018D01*
X130402400Y-94584390D01*
X130402400Y-96494850D01*
X130402400Y-96494850D01*
G37*
X130402400Y-96494850D02*
X129870450Y-97026800D01*
X129082550Y-97026800D01*
X128931000Y-96875250D01*
X128931000Y-96482025D01*
X128939419Y-96476495D01*
X128990902Y-96400224D01*
X129008996Y-96310000D01*
X129008996Y-94710000D01*
X128996190Y-94643996D01*
X130250000Y-94643996D01*
X130337508Y-94627018D01*
X130402400Y-94584390D01*
X130402400Y-96494850D01*
G36*
X176683501Y-93664367D02*
X176240962Y-93221056D01*
X175605528Y-92957201D01*
X174917490Y-92956600D01*
X174281597Y-93219346D01*
X173794656Y-93705438D01*
X173530801Y-94340872D01*
X173530766Y-94380400D01*
X173138680Y-94380400D01*
X173021579Y-94403693D01*
X172922305Y-94470025D01*
X172922302Y-94470028D01*
X172197615Y-95194715D01*
X172131283Y-95293989D01*
X172107990Y-95411090D01*
X172107990Y-97762362D01*
X171116352Y-98754000D01*
X131172565Y-98754000D01*
X132454825Y-97471740D01*
X132521157Y-97372466D01*
X132544450Y-97255365D01*
X132544450Y-92786500D01*
X176683501Y-92786500D01*
X176683501Y-93664367D01*
X176683501Y-93664367D01*
G37*
X176683501Y-93664367D02*
X176240962Y-93221056D01*
X175605528Y-92957201D01*
X174917490Y-92956600D01*
X174281597Y-93219346D01*
X173794656Y-93705438D01*
X173530801Y-94340872D01*
X173530766Y-94380400D01*
X173138680Y-94380400D01*
X173021579Y-94403693D01*
X172922305Y-94470025D01*
X172922302Y-94470028D01*
X172197615Y-95194715D01*
X172131283Y-95293989D01*
X172107990Y-95411090D01*
X172107990Y-97762362D01*
X171116352Y-98754000D01*
X131172565Y-98754000D01*
X132454825Y-97471740D01*
X132521157Y-97372466D01*
X132544450Y-97255365D01*
X132544450Y-92786500D01*
X176683501Y-92786500D01*
X176683501Y-93664367D01*
G36*
X177520500Y-101320500D02*
X76479500Y-101320500D01*
X76479500Y-92786500D01*
X76704499Y-92786500D01*
X76704499Y-92956899D01*
X76727792Y-93074000D01*
X76794124Y-93173274D01*
X77300494Y-93679644D01*
X77274656Y-93705438D01*
X77010801Y-94340872D01*
X77010200Y-95028910D01*
X77272946Y-95664803D01*
X77759038Y-96151744D01*
X78394472Y-96415599D01*
X79082510Y-96416200D01*
X79718403Y-96153454D01*
X80205344Y-95667362D01*
X80469199Y-95031928D01*
X80469800Y-94343890D01*
X80207054Y-93707997D01*
X79720962Y-93221056D01*
X79085528Y-92957201D01*
X78397490Y-92956600D01*
X77761597Y-93219346D01*
X77733622Y-93247272D01*
X77316499Y-92830149D01*
X77316499Y-92786500D01*
X80367350Y-92786500D01*
X80623489Y-93042639D01*
X80623489Y-98201489D01*
X80646782Y-98318590D01*
X80713114Y-98417864D01*
X81369635Y-99074385D01*
X81468909Y-99140717D01*
X81586010Y-99164011D01*
X81586010Y-99164010D01*
X81586015Y-99164010D01*
X120039190Y-99164010D01*
X120156291Y-99140717D01*
X120255565Y-99074385D01*
X121145775Y-98184175D01*
X121212107Y-98084901D01*
X121235400Y-97967800D01*
X121235400Y-92786500D01*
X123516004Y-92786500D01*
X123516004Y-94410000D01*
X123532982Y-94497508D01*
X123583505Y-94574419D01*
X123659776Y-94625902D01*
X123706010Y-94635174D01*
X123691004Y-94710000D01*
X123691004Y-96310000D01*
X123707982Y-96397508D01*
X123758505Y-96474419D01*
X123834776Y-96525902D01*
X123925000Y-96543996D01*
X124026246Y-96543996D01*
X124599622Y-97117371D01*
X124599625Y-97117375D01*
X124698899Y-97183707D01*
X124816000Y-97207000D01*
X124866650Y-97207000D01*
X127350895Y-99691245D01*
X127450169Y-99757577D01*
X127567270Y-99780871D01*
X127567270Y-99780870D01*
X127567275Y-99780870D01*
X130884471Y-99780870D01*
X131001572Y-99757577D01*
X131100846Y-99691245D01*
X131120080Y-99672010D01*
X171397990Y-99672010D01*
X171515091Y-99648717D01*
X171614365Y-99582385D01*
X172936371Y-98260377D01*
X172936374Y-98260375D01*
X172936375Y-98260375D01*
X173002707Y-98161101D01*
X173026000Y-98044000D01*
X173026000Y-97662750D01*
X173862750Y-96826000D01*
X175986062Y-96826000D01*
X176103163Y-96802707D01*
X176202437Y-96736375D01*
X177205876Y-95732936D01*
X177272208Y-95633662D01*
X177295501Y-95516561D01*
X177295501Y-92786500D01*
X177520500Y-92786500D01*
X177520500Y-101320500D01*
X177520500Y-101320500D01*
G37*
X177520500Y-101320500D02*
X76479500Y-101320500D01*
X76479500Y-92786500D01*
X76704499Y-92786500D01*
X76704499Y-92956899D01*
X76727792Y-93074000D01*
X76794124Y-93173274D01*
X77300494Y-93679644D01*
X77274656Y-93705438D01*
X77010801Y-94340872D01*
X77010200Y-95028910D01*
X77272946Y-95664803D01*
X77759038Y-96151744D01*
X78394472Y-96415599D01*
X79082510Y-96416200D01*
X79718403Y-96153454D01*
X80205344Y-95667362D01*
X80469199Y-95031928D01*
X80469800Y-94343890D01*
X80207054Y-93707997D01*
X79720962Y-93221056D01*
X79085528Y-92957201D01*
X78397490Y-92956600D01*
X77761597Y-93219346D01*
X77733622Y-93247272D01*
X77316499Y-92830149D01*
X77316499Y-92786500D01*
X80367350Y-92786500D01*
X80623489Y-93042639D01*
X80623489Y-98201489D01*
X80646782Y-98318590D01*
X80713114Y-98417864D01*
X81369635Y-99074385D01*
X81468909Y-99140717D01*
X81586010Y-99164011D01*
X81586010Y-99164010D01*
X81586015Y-99164010D01*
X120039190Y-99164010D01*
X120156291Y-99140717D01*
X120255565Y-99074385D01*
X121145775Y-98184175D01*
X121212107Y-98084901D01*
X121235400Y-97967800D01*
X121235400Y-92786500D01*
X123516004Y-92786500D01*
X123516004Y-94410000D01*
X123532982Y-94497508D01*
X123583505Y-94574419D01*
X123659776Y-94625902D01*
X123706010Y-94635174D01*
X123691004Y-94710000D01*
X123691004Y-96310000D01*
X123707982Y-96397508D01*
X123758505Y-96474419D01*
X123834776Y-96525902D01*
X123925000Y-96543996D01*
X124026246Y-96543996D01*
X124599622Y-97117371D01*
X124599625Y-97117375D01*
X124698899Y-97183707D01*
X124816000Y-97207000D01*
X124866650Y-97207000D01*
X127350895Y-99691245D01*
X127450169Y-99757577D01*
X127567270Y-99780871D01*
X127567270Y-99780870D01*
X127567275Y-99780870D01*
X130884471Y-99780870D01*
X131001572Y-99757577D01*
X131100846Y-99691245D01*
X131120080Y-99672010D01*
X171397990Y-99672010D01*
X171515091Y-99648717D01*
X171614365Y-99582385D01*
X172936371Y-98260377D01*
X172936374Y-98260375D01*
X172936375Y-98260375D01*
X173002707Y-98161101D01*
X173026000Y-98044000D01*
X173026000Y-97662750D01*
X173862750Y-96826000D01*
X175986062Y-96826000D01*
X176103163Y-96802707D01*
X176202437Y-96736375D01*
X177205876Y-95732936D01*
X177272208Y-95633662D01*
X177295501Y-95516561D01*
X177295501Y-92786500D01*
X177520500Y-92786500D01*
X177520500Y-101320500D01*
G36*
X123705485Y-90784640D02*
X123662492Y-90792982D01*
X123585581Y-90843505D01*
X123534098Y-90919776D01*
X123516004Y-91010000D01*
X123516004Y-92480500D01*
X121235400Y-92480500D01*
X121235400Y-90474550D01*
X121815050Y-89894899D01*
X123324149Y-89894899D01*
X123555622Y-90126371D01*
X123555625Y-90126375D01*
X123654899Y-90192707D01*
X123691004Y-90199888D01*
X123691004Y-90710000D01*
X123705485Y-90784640D01*
X123705485Y-90784640D01*
G37*
X123705485Y-90784640D02*
X123662492Y-90792982D01*
X123585581Y-90843505D01*
X123534098Y-90919776D01*
X123516004Y-91010000D01*
X123516004Y-92480500D01*
X121235400Y-92480500D01*
X121235400Y-90474550D01*
X121815050Y-89894899D01*
X123324149Y-89894899D01*
X123555622Y-90126371D01*
X123555625Y-90126375D01*
X123654899Y-90192707D01*
X123691004Y-90199888D01*
X123691004Y-90710000D01*
X123705485Y-90784640D01*
G36*
X129619000Y-88937974D02*
X129610581Y-88943505D01*
X129559098Y-89019776D01*
X129541004Y-89110000D01*
X129541004Y-90710000D01*
X129553809Y-90776004D01*
X128995759Y-90776004D01*
X129008996Y-90710000D01*
X129008996Y-89110000D01*
X128992018Y-89022492D01*
X128941495Y-88945581D01*
X128931000Y-88938496D01*
X128931000Y-87223005D01*
X128931000Y-87223000D01*
X128931001Y-87223000D01*
X128925227Y-87193977D01*
X129619000Y-87887750D01*
X129619000Y-88937974D01*
X129619000Y-88937974D01*
G37*
X129619000Y-88937974D02*
X129610581Y-88943505D01*
X129559098Y-89019776D01*
X129541004Y-89110000D01*
X129541004Y-90710000D01*
X129553809Y-90776004D01*
X128995759Y-90776004D01*
X129008996Y-90710000D01*
X129008996Y-89110000D01*
X128992018Y-89022492D01*
X128941495Y-88945581D01*
X128931000Y-88938496D01*
X128931000Y-87223005D01*
X128931000Y-87223000D01*
X128931001Y-87223000D01*
X128925227Y-87193977D01*
X129619000Y-87887750D01*
X129619000Y-88937974D01*
G36*
X162144207Y-87138957D02*
X162020000Y-87114049D01*
X158020000Y-87114049D01*
X157797132Y-87157291D01*
X157601252Y-87285963D01*
X157470131Y-87480213D01*
X157424049Y-87710000D01*
X157424049Y-92480500D01*
X147013996Y-92480500D01*
X147013996Y-87710000D01*
X146997018Y-87622492D01*
X146946495Y-87545581D01*
X146870224Y-87494098D01*
X146780000Y-87476004D01*
X142780000Y-87476004D01*
X142692492Y-87492982D01*
X142615581Y-87543505D01*
X142564098Y-87619776D01*
X142546004Y-87710000D01*
X142546004Y-90976004D01*
X139983083Y-90976004D01*
X139989688Y-90942796D01*
X139989689Y-90942796D01*
X140199800Y-90942796D01*
X140287308Y-90925818D01*
X140364219Y-90875295D01*
X140415702Y-90799024D01*
X140433796Y-90708800D01*
X140433796Y-88575546D01*
X140565804Y-88707554D01*
X140565804Y-90708800D01*
X140582782Y-90796308D01*
X140633305Y-90873219D01*
X140709576Y-90924702D01*
X140799800Y-90942796D01*
X141799800Y-90942796D01*
X141887308Y-90925818D01*
X141964219Y-90875295D01*
X142015702Y-90799024D01*
X142033796Y-90708800D01*
X142033796Y-88508800D01*
X142016818Y-88421292D01*
X141966295Y-88344381D01*
X141890024Y-88292898D01*
X141799800Y-88274804D01*
X140998554Y-88274804D01*
X139493770Y-86770020D01*
X161775270Y-86770020D01*
X162144207Y-87138957D01*
X162144207Y-87138957D01*
G37*
X162144207Y-87138957D02*
X162020000Y-87114049D01*
X158020000Y-87114049D01*
X157797132Y-87157291D01*
X157601252Y-87285963D01*
X157470131Y-87480213D01*
X157424049Y-87710000D01*
X157424049Y-92480500D01*
X147013996Y-92480500D01*
X147013996Y-87710000D01*
X146997018Y-87622492D01*
X146946495Y-87545581D01*
X146870224Y-87494098D01*
X146780000Y-87476004D01*
X142780000Y-87476004D01*
X142692492Y-87492982D01*
X142615581Y-87543505D01*
X142564098Y-87619776D01*
X142546004Y-87710000D01*
X142546004Y-90976004D01*
X139983083Y-90976004D01*
X139989688Y-90942796D01*
X139989689Y-90942796D01*
X140199800Y-90942796D01*
X140287308Y-90925818D01*
X140364219Y-90875295D01*
X140415702Y-90799024D01*
X140433796Y-90708800D01*
X140433796Y-88575546D01*
X140565804Y-88707554D01*
X140565804Y-90708800D01*
X140582782Y-90796308D01*
X140633305Y-90873219D01*
X140709576Y-90924702D01*
X140799800Y-90942796D01*
X141799800Y-90942796D01*
X141887308Y-90925818D01*
X141964219Y-90875295D01*
X142015702Y-90799024D01*
X142033796Y-90708800D01*
X142033796Y-88508800D01*
X142016818Y-88421292D01*
X141966295Y-88344381D01*
X141890024Y-88292898D01*
X141799800Y-88274804D01*
X140998554Y-88274804D01*
X139493770Y-86770020D01*
X161775270Y-86770020D01*
X162144207Y-87138957D01*
G36*
X177520500Y-92480500D02*
X177295501Y-92480500D01*
X177295501Y-92455906D01*
X177295501Y-92455901D01*
X177295502Y-92455901D01*
X177272208Y-92338800D01*
X177205876Y-92239526D01*
X176699505Y-91733155D01*
X176725344Y-91707362D01*
X176989199Y-91071928D01*
X176989800Y-90383890D01*
X176727054Y-89747997D01*
X176240962Y-89261056D01*
X175605528Y-88997201D01*
X174917490Y-88996600D01*
X174281597Y-89259346D01*
X173794656Y-89745438D01*
X173530801Y-90380872D01*
X173530200Y-91068910D01*
X173792946Y-91704803D01*
X174279038Y-92191744D01*
X174914472Y-92455599D01*
X175602510Y-92456200D01*
X176238403Y-92193454D01*
X176266377Y-92165527D01*
X176581350Y-92480500D01*
X172413996Y-92480500D01*
X172413996Y-87710000D01*
X172397018Y-87622492D01*
X172346495Y-87545581D01*
X172270224Y-87494098D01*
X172180000Y-87476004D01*
X168180000Y-87476004D01*
X168092492Y-87492982D01*
X168015581Y-87543505D01*
X167964098Y-87619776D01*
X167946004Y-87710000D01*
X167946004Y-90976004D01*
X164765346Y-90976004D01*
X164798554Y-90942796D01*
X165599800Y-90942796D01*
X165687308Y-90925818D01*
X165764219Y-90875295D01*
X165815702Y-90799024D01*
X165833796Y-90708800D01*
X165833796Y-88575545D01*
X165965804Y-88707553D01*
X165965804Y-90708800D01*
X165982782Y-90796308D01*
X166033305Y-90873219D01*
X166109576Y-90924702D01*
X166199800Y-90942796D01*
X167199800Y-90942796D01*
X167287308Y-90925818D01*
X167364219Y-90875295D01*
X167415702Y-90799024D01*
X167433796Y-90708800D01*
X167433796Y-88508800D01*
X167416818Y-88421292D01*
X167366295Y-88344381D01*
X167290024Y-88292898D01*
X167199800Y-88274804D01*
X166398553Y-88274804D01*
X163759375Y-85635625D01*
X163660101Y-85569293D01*
X163543000Y-85546000D01*
X138104666Y-85546000D01*
X137934244Y-85375577D01*
X137834970Y-85309245D01*
X137717869Y-85285952D01*
X132360721Y-85285952D01*
X132011220Y-85285902D01*
X132011197Y-85285906D01*
X132011176Y-85285902D01*
X131882898Y-85285902D01*
X131882893Y-85285901D01*
X131765792Y-85309195D01*
X131666518Y-85375527D01*
X130492025Y-86550020D01*
X130425693Y-86649294D01*
X130402400Y-86766395D01*
X130402400Y-90836066D01*
X130340224Y-90794098D01*
X130293989Y-90784825D01*
X130308996Y-90710000D01*
X130308996Y-89110000D01*
X130292018Y-89022492D01*
X130241495Y-88945581D01*
X130231000Y-88938496D01*
X130231000Y-87761005D01*
X130231000Y-87761000D01*
X130231001Y-87761000D01*
X130207707Y-87643899D01*
X130141375Y-87544625D01*
X127978375Y-85381625D01*
X127879101Y-85315293D01*
X127762000Y-85292000D01*
X106905716Y-85292000D01*
X106905711Y-85291999D01*
X106788610Y-85315293D01*
X106689336Y-85381625D01*
X106689333Y-85381628D01*
X105447625Y-86623336D01*
X105381293Y-86722610D01*
X105358000Y-86839711D01*
X105358000Y-91059250D01*
X103936750Y-92480500D01*
X97993249Y-92480500D01*
X97692020Y-92179270D01*
X97692020Y-87814879D01*
X97668727Y-87697778D01*
X97602395Y-87598504D01*
X96655516Y-86651625D01*
X96556242Y-86585293D01*
X96439141Y-86562000D01*
X87884005Y-86562000D01*
X87884000Y-86561999D01*
X87766899Y-86585293D01*
X87667625Y-86651625D01*
X87667622Y-86651628D01*
X86415951Y-87903299D01*
X86415951Y-87710000D01*
X86372709Y-87487132D01*
X86244037Y-87291252D01*
X86049787Y-87160131D01*
X85820000Y-87114049D01*
X81820000Y-87114049D01*
X81597132Y-87157291D01*
X81401252Y-87285963D01*
X81270131Y-87480213D01*
X81224049Y-87710000D01*
X81224049Y-90218037D01*
X79786536Y-88780524D01*
X79687262Y-88714192D01*
X79570161Y-88690899D01*
X77909844Y-88690899D01*
X77909839Y-88690898D01*
X77792738Y-88714192D01*
X77693464Y-88780524D01*
X76794124Y-89679864D01*
X76727792Y-89779138D01*
X76704499Y-89896239D01*
X76704499Y-92480500D01*
X76479500Y-92480500D01*
X76479500Y-84099500D01*
X177520500Y-84099500D01*
X177520500Y-92480500D01*
X177520500Y-92480500D01*
G37*
X177520500Y-92480500D02*
X177295501Y-92480500D01*
X177295501Y-92455906D01*
X177295501Y-92455901D01*
X177295502Y-92455901D01*
X177272208Y-92338800D01*
X177205876Y-92239526D01*
X176699505Y-91733155D01*
X176725344Y-91707362D01*
X176989199Y-91071928D01*
X176989800Y-90383890D01*
X176727054Y-89747997D01*
X176240962Y-89261056D01*
X175605528Y-88997201D01*
X174917490Y-88996600D01*
X174281597Y-89259346D01*
X173794656Y-89745438D01*
X173530801Y-90380872D01*
X173530200Y-91068910D01*
X173792946Y-91704803D01*
X174279038Y-92191744D01*
X174914472Y-92455599D01*
X175602510Y-92456200D01*
X176238403Y-92193454D01*
X176266377Y-92165527D01*
X176581350Y-92480500D01*
X172413996Y-92480500D01*
X172413996Y-87710000D01*
X172397018Y-87622492D01*
X172346495Y-87545581D01*
X172270224Y-87494098D01*
X172180000Y-87476004D01*
X168180000Y-87476004D01*
X168092492Y-87492982D01*
X168015581Y-87543505D01*
X167964098Y-87619776D01*
X167946004Y-87710000D01*
X167946004Y-90976004D01*
X164765346Y-90976004D01*
X164798554Y-90942796D01*
X165599800Y-90942796D01*
X165687308Y-90925818D01*
X165764219Y-90875295D01*
X165815702Y-90799024D01*
X165833796Y-90708800D01*
X165833796Y-88575545D01*
X165965804Y-88707553D01*
X165965804Y-90708800D01*
X165982782Y-90796308D01*
X166033305Y-90873219D01*
X166109576Y-90924702D01*
X166199800Y-90942796D01*
X167199800Y-90942796D01*
X167287308Y-90925818D01*
X167364219Y-90875295D01*
X167415702Y-90799024D01*
X167433796Y-90708800D01*
X167433796Y-88508800D01*
X167416818Y-88421292D01*
X167366295Y-88344381D01*
X167290024Y-88292898D01*
X167199800Y-88274804D01*
X166398553Y-88274804D01*
X163759375Y-85635625D01*
X163660101Y-85569293D01*
X163543000Y-85546000D01*
X138104666Y-85546000D01*
X137934244Y-85375577D01*
X137834970Y-85309245D01*
X137717869Y-85285952D01*
X132360721Y-85285952D01*
X132011220Y-85285902D01*
X132011197Y-85285906D01*
X132011176Y-85285902D01*
X131882898Y-85285902D01*
X131882893Y-85285901D01*
X131765792Y-85309195D01*
X131666518Y-85375527D01*
X130492025Y-86550020D01*
X130425693Y-86649294D01*
X130402400Y-86766395D01*
X130402400Y-90836066D01*
X130340224Y-90794098D01*
X130293989Y-90784825D01*
X130308996Y-90710000D01*
X130308996Y-89110000D01*
X130292018Y-89022492D01*
X130241495Y-88945581D01*
X130231000Y-88938496D01*
X130231000Y-87761005D01*
X130231000Y-87761000D01*
X130231001Y-87761000D01*
X130207707Y-87643899D01*
X130141375Y-87544625D01*
X127978375Y-85381625D01*
X127879101Y-85315293D01*
X127762000Y-85292000D01*
X106905716Y-85292000D01*
X106905711Y-85291999D01*
X106788610Y-85315293D01*
X106689336Y-85381625D01*
X106689333Y-85381628D01*
X105447625Y-86623336D01*
X105381293Y-86722610D01*
X105358000Y-86839711D01*
X105358000Y-91059250D01*
X103936750Y-92480500D01*
X97993249Y-92480500D01*
X97692020Y-92179270D01*
X97692020Y-87814879D01*
X97668727Y-87697778D01*
X97602395Y-87598504D01*
X96655516Y-86651625D01*
X96556242Y-86585293D01*
X96439141Y-86562000D01*
X87884005Y-86562000D01*
X87884000Y-86561999D01*
X87766899Y-86585293D01*
X87667625Y-86651625D01*
X87667622Y-86651628D01*
X86415951Y-87903299D01*
X86415951Y-87710000D01*
X86372709Y-87487132D01*
X86244037Y-87291252D01*
X86049787Y-87160131D01*
X85820000Y-87114049D01*
X81820000Y-87114049D01*
X81597132Y-87157291D01*
X81401252Y-87285963D01*
X81270131Y-87480213D01*
X81224049Y-87710000D01*
X81224049Y-90218037D01*
X79786536Y-88780524D01*
X79687262Y-88714192D01*
X79570161Y-88690899D01*
X77909844Y-88690899D01*
X77909839Y-88690898D01*
X77792738Y-88714192D01*
X77693464Y-88780524D01*
X76794124Y-89679864D01*
X76727792Y-89779138D01*
X76704499Y-89896239D01*
X76704499Y-92480500D01*
X76479500Y-92480500D01*
X76479500Y-84099500D01*
X177520500Y-84099500D01*
X177520500Y-92480500D01*
M02*
