G04 #@! TF.FileFunction,Soldermask,Top*
%FSLAX46Y46*%
G04 Gerber Fmt 4.6, Leading zero omitted, Abs format (unit mm)*
G04 Created by KiCad (PCBNEW (2015-06-12 BZR 5734)-product) date Wednesday, July 15, 2015 'PMt' 05:18:17 PM*
%MOMM*%
G01*
G04 APERTURE LIST*
%ADD10C,0.100000*%
%ADD11R,0.440000X1.740000*%
%ADD12R,3.450000X2.770000*%
%ADD13C,0.750000*%
%ADD14R,1.250000X1.500000*%
%ADD15C,3.000000*%
%ADD16R,3.000000X3.000000*%
%ADD17R,1.000000X2.200000*%
%ADD18R,4.100000X3.100000*%
G04 APERTURE END LIST*
D10*
D11*
X129925000Y-89910000D03*
X129925000Y-95510000D03*
X129275000Y-89910000D03*
X129275000Y-95510000D03*
X128625000Y-89910000D03*
X128625000Y-95510000D03*
X127975000Y-89910000D03*
X127975000Y-95510000D03*
X127325000Y-89910000D03*
X127325000Y-95510000D03*
X126675000Y-89910000D03*
X126675000Y-95510000D03*
X126025000Y-89910000D03*
X126025000Y-95510000D03*
X125375000Y-89910000D03*
X125375000Y-95510000D03*
X124725000Y-89910000D03*
X124725000Y-95510000D03*
X124075000Y-89910000D03*
X124075000Y-95510000D03*
D12*
X127000000Y-92710000D03*
D13*
X171196000Y-96774000D03*
X169164000Y-96774000D03*
X169164000Y-93726000D03*
X169164000Y-95250000D03*
X171196000Y-95250000D03*
X171196000Y-93726000D03*
X161036000Y-96774000D03*
X159004000Y-96774000D03*
X159004000Y-93726000D03*
X159004000Y-95250000D03*
X161036000Y-95250000D03*
X161036000Y-93726000D03*
X145796000Y-96774000D03*
X143764000Y-96774000D03*
X143764000Y-93726000D03*
X143764000Y-95250000D03*
X145796000Y-95250000D03*
X145796000Y-93726000D03*
X135636000Y-96774000D03*
X133604000Y-96774000D03*
X133604000Y-93726000D03*
X133604000Y-95250000D03*
X135636000Y-95250000D03*
X135636000Y-93726000D03*
X118364000Y-96774000D03*
X118364000Y-93726000D03*
X118364000Y-95250000D03*
X110236000Y-96774000D03*
X108204000Y-96774000D03*
X108204000Y-93726000D03*
X108204000Y-95250000D03*
X110236000Y-95250000D03*
X110236000Y-93726000D03*
X94996000Y-96774000D03*
X92964000Y-95250000D03*
X94996000Y-95250000D03*
X94996000Y-93726000D03*
X92964000Y-93726000D03*
X92964000Y-96774000D03*
X84836000Y-96774000D03*
X82804000Y-96774000D03*
X82804000Y-95250000D03*
X84836000Y-95250000D03*
X84836000Y-93726000D03*
D14*
X122199400Y-91460000D03*
X122199400Y-93960000D03*
X101600000Y-93960000D03*
X101600000Y-91460000D03*
D15*
X78740000Y-86766400D03*
X78740000Y-90726400D03*
X78740000Y-94686400D03*
D16*
X78740000Y-98646400D03*
D15*
X175260000Y-86766400D03*
X175260000Y-90726400D03*
X175260000Y-94686400D03*
D16*
X175260000Y-98646400D03*
D13*
X82804000Y-93726000D03*
D17*
X138099800Y-95808800D03*
X138099800Y-89608800D03*
X139699800Y-95808800D03*
X139699800Y-89608800D03*
X141299800Y-95808800D03*
X141299800Y-89608800D03*
D18*
X139700000Y-92710000D03*
D17*
X163499800Y-95808800D03*
X163499800Y-89608800D03*
X165099800Y-95808800D03*
X165099800Y-89608800D03*
X166699800Y-95808800D03*
X166699800Y-89608800D03*
D18*
X165100000Y-92710000D03*
D17*
X87299800Y-95808800D03*
X87299800Y-89608800D03*
X88899800Y-95808800D03*
X88899800Y-89608800D03*
X90499800Y-95808800D03*
X90499800Y-89608800D03*
D18*
X88900000Y-92710000D03*
D17*
X112699800Y-95808800D03*
X112699800Y-89608800D03*
X114299800Y-95808800D03*
X114299800Y-89608800D03*
X115899800Y-95808800D03*
X115899800Y-89608800D03*
D18*
X114300000Y-92710000D03*
M02*
