G04 #@! TF.FileFunction,Soldermask,Bot*
%FSLAX46Y46*%
G04 Gerber Fmt 4.6, Leading zero omitted, Abs format (unit mm)*
G04 Created by KiCad (PCBNEW (2015-06-12 BZR 5734)-product) date Wednesday, July 15, 2015 'PMt' 05:18:17 PM*
%MOMM*%
G01*
G04 APERTURE LIST*
%ADD10C,0.100000*%
%ADD11C,0.750000*%
%ADD12C,3.000000*%
%ADD13R,3.000000X3.000000*%
G04 APERTURE END LIST*
D10*
D11*
X171196000Y-96774000D03*
X169164000Y-96774000D03*
X169164000Y-93726000D03*
X169164000Y-95250000D03*
X171196000Y-95250000D03*
X171196000Y-93726000D03*
X161036000Y-96774000D03*
X159004000Y-96774000D03*
X159004000Y-93726000D03*
X159004000Y-95250000D03*
X161036000Y-95250000D03*
X161036000Y-93726000D03*
X145796000Y-96774000D03*
X143764000Y-96774000D03*
X143764000Y-93726000D03*
X143764000Y-95250000D03*
X145796000Y-95250000D03*
X145796000Y-93726000D03*
X135636000Y-96774000D03*
X133604000Y-96774000D03*
X133604000Y-93726000D03*
X133604000Y-95250000D03*
X135636000Y-95250000D03*
X135636000Y-93726000D03*
X118364000Y-96774000D03*
X118364000Y-93726000D03*
X118364000Y-95250000D03*
X110236000Y-96774000D03*
X108204000Y-96774000D03*
X108204000Y-93726000D03*
X108204000Y-95250000D03*
X110236000Y-95250000D03*
X110236000Y-93726000D03*
X94996000Y-96774000D03*
X92964000Y-95250000D03*
X94996000Y-95250000D03*
X94996000Y-93726000D03*
X92964000Y-93726000D03*
X92964000Y-96774000D03*
X84836000Y-96774000D03*
X82804000Y-96774000D03*
X82804000Y-95250000D03*
X84836000Y-95250000D03*
X84836000Y-93726000D03*
D12*
X78740000Y-86766400D03*
X78740000Y-90726400D03*
X78740000Y-94686400D03*
D13*
X78740000Y-98646400D03*
D12*
X175260000Y-86766400D03*
X175260000Y-90726400D03*
X175260000Y-94686400D03*
D13*
X175260000Y-98646400D03*
D11*
X82804000Y-93726000D03*
M02*
